<svg width="20" height="21" viewBox="0 0 20 21" fill="none" xmlns="http://www.w3.org/2000/svg">
<path d="M2.24003 14.6163C3.53639 13.5313 4.85202 12.874 6.13247 13.9574L6.89705 14.6122C7.45647 15.0875 8.49657 17.3084 12.518 12.7814C16.5385 8.26009 14.146 7.55612 13.5857 7.0849L12.8169 6.42928C11.5432 5.34341 12.0239 3.97645 12.9426 2.56932L13.4969 1.71702C14.4198 0.313177 15.4247 -0.608786 16.7018 0.475443L17.3919 1.0655C17.9563 1.46789 19.5341 2.77584 19.9168 5.26064C20.3774 8.24206 18.9244 11.6562 15.5956 15.4022C12.2709 19.1499 9.01579 21.0324 5.93232 20.9996C3.36974 20.9725 1.82215 19.6269 1.33811 19.1376L0.64554 18.5467C-0.628211 17.4633 0.163172 16.3603 1.46037 15.2728L2.24003 14.6163Z" fill="#FFD211"/>
</svg>
